<?xml version="1.0" standalone="no"?>
<!DOCTYPE svg PUBLIC "-//W3C//DTD SVG 20010904//EN"
 "http://www.w3.org/TR/2001/REC-SVG-20010904/DTD/svg10.dtd">
<svg version="1.0" xmlns="http://www.w3.org/2000/svg"
 width="108.000000pt" height="91.000000pt" viewBox="0 0 108.000000 91.000000"
 preserveAspectRatio="xMidYMid meet">

<g transform="translate(0.000000,91.000000) scale(0.100000,-0.100000)"
fill="#000000" stroke="none">
<path d="M343 750 c-62 -17 -93 -34 -93 -51 0 -5 8 -9 19 -9 10 0 21 -9 24
-20 3 -11 1 -18 -4 -15 -9 6 -39 -57 -39 -81 0 -10 16 -14 60 -14 l60 0 6 39
6 40 63 6 c35 4 68 4 73 1 16 -10 70 14 85 38 23 34 -4 63 -72 76 -72 13 -114
11 -188 -10z"/>
<path d="M635 721 c-4 -18 -2 -62 5 -97 l12 -64 138 0 137 0 52 55 c39 41 51
60 45 73 -4 9 -8 27 -8 40 -1 19 -6 22 -36 20 -42 -3 -47 -6 -118 -80 -30 -32
-61 -58 -68 -58 -6 0 -21 16 -33 35 -11 19 -26 34 -33 33 -7 -2 -12 3 -10 10
1 6 -6 12 -15 12 -10 0 -27 12 -39 27 l-21 27 -8 -33z"/>
<path d="M205 388 c-24 -73 -21 -151 6 -170 8 -5 47 -7 88 -4 41 3 103 6 138
6 55 0 67 4 89 25 l25 25 -32 33 c-32 32 -33 32 -121 30 -97 -2 -93 -5 -71 55
4 9 -11 12 -56 12 -40 0 -63 -4 -66 -12z"/>
<path d="M598 383 c-16 -19 -44 -92 -40 -106 1 -4 -2 -16 -8 -26 -7 -14 -6
-20 6 -25 21 -8 69 18 132 71 29 25 54 44 56 42 2 -2 16 -28 30 -57 15 -30 37
-58 51 -64 14 -6 25 -16 25 -22 0 -6 5 -3 11 8 9 15 13 16 20 5 7 -11 13 -10
30 8 l22 21 -34 81 -34 81 -126 0 c-108 0 -128 -3 -141 -17z"/>
</g>
</svg>
